<?xml version="1.0" encoding="utf-8"?>
<svg version="1.1" xmlns:xlink="http://www.w3.org/1999/xlink" width="124px" height="49px" xmlns="http://www.w3.org/2000/svg">
  <defs>
    <mask fill="white" id="clip35">
      <path d="M 0 44  L 0 5  C 0 2.2000000000000455  2.1999999999999886 0  5 0  L 66.90909090909088 0  L 119 0  C 121.80000000000001 0  124 2.2000000000000455  124 5  L 124 44  C 124 46.799999999999955  121.80000000000001 49  119 49  L 5 49  C 2.1999999999999886 49  0 46.799999999999955  0 44  Z " fill-rule="evenodd" />
    </mask>
  </defs>
  <g transform="matrix(1 0 0 1 -482 -484 )">
    <path d="M 0 44  L 0 5  C 0 2.2000000000000455  2.1999999999999886 0  5 0  L 66.90909090909088 0  L 119 0  C 121.80000000000001 0  124 2.2000000000000455  124 5  L 124 44  C 124 46.799999999999955  121.80000000000001 49  119 49  L 5 49  C 2.1999999999999886 49  0 46.799999999999955  0 44  Z " fill-rule="nonzero" fill="#ffffff" stroke="none" transform="matrix(1 0 0 1 482 484 )" />
    <path d="M 0 44  L 0 5  C 0 2.2000000000000455  2.1999999999999886 0  5 0  L 66.90909090909088 0  L 119 0  C 121.80000000000001 0  124 2.2000000000000455  124 5  L 124 44  C 124 46.799999999999955  121.80000000000001 49  119 49  L 5 49  C 2.1999999999999886 49  0 46.799999999999955  0 44  Z " stroke-width="4" stroke="#797979" fill="none" transform="matrix(1 0 0 1 482 484 )" mask="url(#clip35)" />
  </g>
</svg>