<?xml version="1.0" encoding="utf-8"?>
<svg version="1.1" xmlns:xlink="http://www.w3.org/1999/xlink" width="119px" height="49px" xmlns="http://www.w3.org/2000/svg">
  <defs>
    <mask fill="white" id="clip36">
      <path d="M 0 44  L 0 5  C 0 2.2000000000000455  2.2000000000000455 0  5 0  L 67.51851851851848 0  L 114 0  C 116.79999999999995 0  119 2.2000000000000455  119 5  L 119 44  C 119 46.799999999999955  116.79999999999995 49  114 49  L 5 49  C 2.2000000000000455 49  0 46.799999999999955  0 44  Z " fill-rule="evenodd" />
    </mask>
  </defs>
  <g transform="matrix(1 0 0 1 -714 -484 )">
    <path d="M 0 44  L 0 5  C 0 2.2000000000000455  2.2000000000000455 0  5 0  L 67.51851851851848 0  L 114 0  C 116.79999999999995 0  119 2.2000000000000455  119 5  L 119 44  C 119 46.799999999999955  116.79999999999995 49  114 49  L 5 49  C 2.2000000000000455 49  0 46.799999999999955  0 44  Z " fill-rule="nonzero" fill="#ffffff" stroke="none" transform="matrix(1 0 0 1 714 484 )" />
    <path d="M 0 44  L 0 5  C 0 2.2000000000000455  2.2000000000000455 0  5 0  L 67.51851851851848 0  L 114 0  C 116.79999999999995 0  119 2.2000000000000455  119 5  L 119 44  C 119 46.799999999999955  116.79999999999995 49  114 49  L 5 49  C 2.2000000000000455 49  0 46.799999999999955  0 44  Z " stroke-width="4" stroke="#797979" fill="none" transform="matrix(1 0 0 1 714 484 )" mask="url(#clip36)" />
  </g>
</svg>